<svg xmlns="http://www.w3.org/2000/svg" viewBox="0 0 330 220" width="100%"><g fill="none" fill-rule="evenodd"><g opacity="0.1"><path fill="#24EDFC" d="M50 203H33v-17h17zm99 0h-17v-17h17zm0 17h-17v-17h17zm-99-34H33v-17h17zm-33-17H0v-17h17zm0-34H0v-17h17zm16-17H16v-17h17z"></path><path fill="#24EDFC" d="M33 102H16V85h17zM17 17H0V0h17z"></path><path fill="#FDEE05" d="M33 85H16V68h17zM17 51H0V34h17z"></path><path fill="#24EDFC" d="M33 51H16V34h17zm34-17H50V17h17zm0-17H50V0h17z"></path><path fill="#EA4D8C" d="M33 186H16v-17h17zm0-17H16v-17h17zm17-17H33v-17h17zm-17-17H16v-17h17zm34 0H50v-17h17z"></path><path fill="#FFF" d="M132 203h-17v-17h17zm33 17h-17v-17h17zm-50-51H98v-17h17zm-16-17H82v-17h17zm0-17H82v-17h17zm66 17h-17v-17h17zm0-17h-17v-17h17zm-16-17h-17v-17h17zm-17 0h-17v-17h17zm-33 0H82v-17h17z"></path><path fill="#FFF" d="M99 102H82V85h17zm-49 0H33V85h17zm0-17H33V68h17z"></path><path fill="#FFF" d="M115 102H98V85h17zm0-17H98V68h17zm17 0h-17V68h17zm-17-51H98V17h17zM50 17H33V0h17zm115 85h-17V85h17zm-33-34h-17V51h17zm33-51h-17V0h17zm-50 0H98V0h17zm-32 0H66V0h17zM17 68H0V51h17zm98 135H98v-17h17z"></path><path fill="#121212" d="M115 220H98v-17h17zm50-34h-17v-17h17zm0-17h-17v-17h17z"></path><path fill="#FF7939" d="M99 203H82v-17h17zm0-17H82v-17h17zm50-17h-17v-17h17zm0-101h-17V51h17zm-50 0H82V51h17z"></path><path fill="#FF7939" d="M83 68H66V51h17zm66-17h-17V34h17zm-17-34h-17V0h17zM17 34H0V17h17z"></path><path fill="#844AE0" d="M149 152h-17v-17h17zm-99 68H33v-17h17zm-17 0H16v-17h17zm-16-34H0v-17h17z"></path><path fill="#FDEE05" d="M115 186H98v-17h17zm-32-17H66v-17h17zm0-17H66v-17h17zm-66 68H0v-17h17zm0-17H0v-17h17z"></path><path fill="#FDEE05" d="M67 169H50v-17h17zm65 17h-17v-17h17zm17-51h-17v-17h17zm0-33h-17V85h17zm-17-51h-17V34h17zm-17 17H98V51h17zM99 34H82V17h17zM50 51H33V34h17zm82-17h-17V17h17zM99 17H82V0h17zm33 85h-17V85h17zm-33 67H82v-17h17z"></path><path fill="#FF7939" d="M83 186H66v-17h17zm49-17h-17v-17h17zm33 34h-17v-17h17z"></path><path fill="#844AE0" d="M132 152h-17v-17h17zm-49-17H66v-17h17zm0-17H66v-17h17z"></path><path fill="#844AE0" d="M67 102H50V85h17zm16-17H66V68h17zm82 0h-17V68h17zm0-51h-17V17h17zm-16-17h-17V0h17z"></path><path fill="#844AE0" d="M99 85H82V68h17zm0-34H82V34h17zM67 152H50v-17h17zm-34 0H16v-17h17zm-16-34H0v-17h17z"></path><path fill="#844AE0" d="M17 102H0V85h17z"></path><path fill="#121212" d="M99 220H82v-17h17z"></path><path fill="#FFF" d="M83 203H66v-17h17z"></path><path fill="#EA4D8C" d="M83 220H66v-17h17zm66-34h-17v-17h17zm-17 34h-17v-17h17zm-17-68H98v-17h17zm-32-50H66V85h17zM67 68H50V51h17zm16-17H66V34h17zM33 68H16V51h17zm0-51H16V0h17zm0 17H16V17h17zm132 17h-17V34h17zm0 17h-17V51h17z"></path><path fill="#121212" d="M67 203H50v-17h17zm-34 0H16v-17h17zm82-68H98v-17h17zm-82-17v-17h17v17z"></path><path fill="#24EDFC" d="M50 85V68h17v17z"></path><path fill="#121212" d="M33 68V51h17v17zm0-34V17h17v17zm17 17V34h17v17zm16-17V17h17v17zm66 0V17h17v17zM0 85V68h17v17zm98-34V34h17v17zm67 67h-17v-17h17zm-16-33h-17V68h17zm-17 50h-17v-17h17zm-99 0v-17h17v17zm34 51H50v-17h17zm48-68H98v-17h17zm-65 0v-17h17v17zm0 51H33v-17h17zm-33-17H0v-17h17z"></path><path fill="#EA4D8C" d="M67 220H50v-17h17z"></path></g><g opacity="0.1"><path fill="#24EDFC" d="M215 203h-17v-17h17zm99 0h-17v-17h17zm0 17h-17v-17h17zm-99-34h-17v-17h17zm-33-17h-17v-17h17zm0-34h-17v-17h17zm16-17h-17v-17h17z"></path><path fill="#24EDFC" d="M198 102h-17V85h17zm-16-85h-17V0h17z"></path><path fill="#FDEE05" d="M198 85h-17V68h17zm-16-34h-17V34h17z"></path><path fill="#24EDFC" d="M198 51h-17V34h17zm34-17h-17V17h17zm0-17h-17V0h17z"></path><path fill="#EA4D8C" d="M198 186h-17v-17h17zm0-17h-17v-17h17zm17-17h-17v-17h17zm-17-17h-17v-17h17zm34 0h-17v-17h17z"></path><path fill="#FFF" d="M297 203h-17v-17h17zm33 17h-17v-17h17zm-50-51h-17v-17h17zm-16-17h-17v-17h17zm0-17h-17v-17h17zm66 17h-17v-17h17zm0-17h-17v-17h17zm-16-17h-17v-17h17zm-17 0h-17v-17h17zm-33 0h-17v-17h17z"></path><path fill="#FFF" d="M264 102h-17V85h17zm-49 0h-17V85h17zm0-17h-17V68h17z"></path><path fill="#FFF" d="M280 102h-17V85h17zm0-17h-17V68h17zm17 0h-17V68h17zm-17-51h-17V17h17zm-65-17h-17V0h17zm115 85h-17V85h17zm-33-34h-17V51h17zm33-51h-17V0h17zm-50 0h-17V0h17zm-32 0h-17V0h17zm-66 51h-17V51h17zm98 135h-17v-17h17z"></path><path fill="#121212" d="M280 220h-17v-17h17zm50-34h-17v-17h17zm0-17h-17v-17h17z"></path><path fill="#FF7939" d="M264 203h-17v-17h17zm0-17h-17v-17h17zm50-17h-17v-17h17zm0-101h-17V51h17zm-50 0h-17V51h17z"></path><path fill="#FF7939" d="M248 68h-17V51h17zm66-17h-17V34h17zm-17-34h-17V0h17zM182 34h-17V17h17z"></path><path fill="#844AE0" d="M314 152h-17v-17h17zm-99 68h-17v-17h17zm-17 0h-17v-17h17zm-16-34h-17v-17h17z"></path><path fill="#FDEE05" d="M280 186h-17v-17h17zm-32-17h-17v-17h17zm0-17h-17v-17h17zm-66 68h-17v-17h17zm0-17h-17v-17h17z"></path><path fill="#FDEE05" d="M232 169h-17v-17h17zm65 17h-17v-17h17zm17-51h-17v-17h17zm0-33h-17V85h17zm-17-51h-17V34h17zm-17 17h-17V51h17zm-16-34h-17V17h17zm-49 17h-17V34h17zm82-17h-17V17h17zm-33-17h-17V0h17zm33 85h-17V85h17zm-33 67h-17v-17h17z"></path><path fill="#FF7939" d="M248 186h-17v-17h17zm49-17h-17v-17h17zm33 34h-17v-17h17z"></path><path fill="#844AE0" d="M297 152h-17v-17h17zm-49-17h-17v-17h17zm0-17h-17v-17h17z"></path><path fill="#844AE0" d="M232 102h-17V85h17zm16-17h-17V68h17zm82 0h-17V68h17zm0-51h-17V17h17zm-16-17h-17V0h17z"></path><path fill="#844AE0" d="M264 85h-17V68h17zm0-34h-17V34h17zm-32 101h-17v-17h17zm-34 0h-17v-17h17zm-16-34h-17v-17h17z"></path><path fill="#844AE0" d="M182 102h-17V85h17z"></path><path fill="#121212" d="M264 220h-17v-17h17z"></path><path fill="#FFF" d="M248 203h-17v-17h17z"></path><path fill="#EA4D8C" d="M248 220h-17v-17h17zm66-34h-17v-17h17zm-17 34h-17v-17h17zm-17-68h-17v-17h17zm-32-50h-17V85h17zm-16-34h-17V51h17zm16-17h-17V34h17zm-50 17h-17V51h17zm0-51h-17V0h17zm0 17h-17V17h17zm132 17h-17V34h17zm0 17h-17V51h17z"></path><path fill="#121212" d="M232 203h-17v-17h17zm-34 0h-17v-17h17zm82-68h-17v-17h17zm-82-17v-17h17v17z"></path><path fill="#24EDFC" d="M215 85V68h17v17z"></path><path fill="#121212" d="M198 68V51h17v17zm0-34V17h17v17zm17 17V34h17v17zm16-17V17h17v17zm66 0V17h17v17zM165 85V68h17v17zm98-34V34h17v17zm67 67h-17v-17h17zm-16-33h-17V68h17zm-17 50h-17v-17h17zm-99 0v-17h17v17zm34 51h-17v-17h17zm48-68h-17v-17h17zm-65 0v-17h17v17zm0 51h-17v-17h17zm-33-17h-17v-17h17z"></path><path fill="#EA4D8C" d="M232 220h-17v-17h17z"></path></g><path fill="#38FF6E" opacity="0.4" style="mix-blend-mode: color;" d="M0 0h330v220H0z"></path></g></svg>